<svg xmlns="http://www.w3.org/2000/svg" viewBox="0 0 24 24"><circle cx="12" cy="20" r="2" opacity=".35"></circle><rect width="16" height="8" x="4" y="3" opacity=".35"></rect><path d="M20,2c0-0.552-0.448-1-1-1H5C4.448,1,4,1.448,4,2v1c0,0.552,0.448,1,1,1h2c0.552,0,1,0.448,1,1v3h2V6c0-0.552,0.448-1,1-1h0	c0.552,0,1,0.448,1,1v0h2V5c0-0.552,0.448-1,1-1h4c0.552,0,1-0.448,1-1V2z"></path><circle cx="13" cy="6" r="1"></circle><circle cx="9" cy="8" r="1"></circle><path d="M4,11v2c0,1.105,0.895,2,2,2h2.001c0.959,0,1.689,0.861,1.531,1.807C9.532,16.807,9,19,9,20c0,1.657,1.343,3,3,3	s3-1.343,3-3c0-1-0.532-3.193-0.532-3.193C14.31,15.861,15.04,15,15.999,15H18c1.105,0,2-0.895,2-2v-2H4z M12,21	c-0.552,0-1-0.448-1-1c0-0.552,0.448-1,1-1s1,0.448,1,1C13,20.552,12.552,21,12,21z"></path></svg>